<?xml version="1.0" encoding="UTF-8"?>
<svg viewBox="0 0 184.95567 299.16074" xmlns="http://www.w3.org/2000/svg" xmlns:xlink="http://www.w3.org/1999/xlink">
 <defs>
  <linearGradient id="g" x1="506.57" x2="506.57" y1="580.01" y2="589.57" gradientUnits="userSpaceOnUse">
   <stop stop-color="#fbb045" offset="0"/>
   <stop stop-color="#c77829" offset="1"/>
  </linearGradient>
  <linearGradient id="f" x1="483.15" x2="483.15" y1="580.01" y2="589.57" gradientUnits="userSpaceOnUse">
   <stop stop-color="#fbb045" offset="0"/>
   <stop stop-color="#c77829" offset="1"/>
  </linearGradient>
  <linearGradient id="e" x2="0" y1="583.14" y2="594.5" gradientUnits="userSpaceOnUse">
   <stop stop-color="#fbb045" offset="0"/>
   <stop stop-color="#c77829" offset="1"/>
  </linearGradient>
  <linearGradient id="d" x1="443.1" x2="443.1" y1="582.47" y2="593.82" gradientUnits="userSpaceOnUse">
   <stop stop-color="#fbb045" offset="0"/>
   <stop stop-color="#c77829" offset="1"/>
  </linearGradient>
  <linearGradient id="b" x2="0" y1="579.33" y2="588.89" gradientUnits="userSpaceOnUse">
   <stop stop-color="#fbb045" offset="0"/>
   <stop stop-color="#c77829" offset="1"/>
  </linearGradient>
  <linearGradient id="c" x1="249.76" x2="255.56" gradientUnits="userSpaceOnUse">
   <stop stop-color="#fbb045" offset="0"/>
   <stop stop-color="#c77829" offset="1"/>
  </linearGradient>
  <linearGradient id="a" x2="0" y1="579.33" y2="588.89" gradientUnits="userSpaceOnUse" xlink:href="#b"/>
 </defs>
 <g transform="translate(-158.81 -125.25)">
  <path d="m334.13 393.51c0 13.644-36.77 24.703-82.13 24.703s-82.13-11.06-82.13-24.703 36.771-24.703 82.13-24.703 82.13 11.06 82.13 24.703z" fill="#010101" fill-opacity=".3137"/>
  <path d="m326.35 332.72c0.012 41.071-33.279 74.372-74.349 74.372s-74.362-33.301-74.349-74.372c-0.013-41.07 33.278-74.371 74.349-74.371s74.361 33.301 74.349 74.371z" fill="#ffd700" stroke="#010101" stroke-linecap="round" stroke-linejoin="round" stroke-width="4"/>
  <path d="m321.853,307.214c.052,1.142.085,2.304.085,3.457 0,41.042-33.305,74.347-74.345,74.347-32.081,0-59.454-20.362-69.871-48.851 1.801,39.445 34.396,70.91 74.283,70.91 41.039,0 74.345-33.305 74.345-74.346 0-8.96-1.587-17.559-4.497-25.517z" fill="#010101" fill-opacity=".3137"/>
  <g transform="translate(-216.73 -178.06)">
   <path d="m516.24 578.98c0 8.631-4.331 15.628-9.673 15.628s-9.672-6.997-9.672-15.628 4.33-15.628 9.672-15.628 9.673 6.998 9.673 15.628z" fill="url(#g)" stroke="#010101" stroke-linecap="round" stroke-linejoin="round" stroke-width="4"/>
   <path d="m492.82 578.98c0 8.631-4.331 15.628-9.673 15.628s-9.673-6.997-9.673-15.628 4.331-15.628 9.673-15.628 9.673 6.998 9.673 15.628z" fill="url(#f)" stroke="#010101" stroke-linecap="round" stroke-linejoin="round" stroke-width="4"/>
   <path d="m504.36 581.92c0 10.255-4.33 18.567-9.672 18.567s-9.673-8.313-9.673-18.567 4.331-18.567 9.673-18.567 9.672 8.313 9.672 18.567z" fill="url(#e)" stroke="#010101" stroke-linecap="round" stroke-linejoin="round" stroke-width="4"/>
   <path d="m464.65 578.3c0 8.631-4.331 15.628-9.673 15.628s-9.672-6.997-9.672-15.628 4.33-15.628 9.672-15.628 9.673 6.997 9.673 15.628z" fill="url(#a)" stroke="#010101" stroke-linecap="round" stroke-linejoin="round" stroke-width="4"/>
   <path d="m441.24 578.3c0 8.631-4.331 15.628-9.673 15.628s-9.672-6.997-9.672-15.628 4.331-15.628 9.672-15.628 9.673 6.997 9.673 15.628z" fill="url(#a)" stroke="#010101" stroke-linecap="round" stroke-linejoin="round" stroke-width="4"/>
   <path d="m452.78 581.24c0 10.255-4.33 18.567-9.672 18.567s-9.672-8.313-9.672-18.567 4.331-18.567 9.672-18.567 9.672 8.313 9.672 18.567z" fill="url(#d)" stroke="#010101" stroke-linecap="round" stroke-linejoin="round" stroke-width="4"/>
   <path d="m430.89 563.35c-3.941 0-7.317 3.821-8.824 9.29 12.877 3.444 27.024 5.453 41.893 5.728-0.203-8.339-4.441-15.018-9.651-15.018-2.24 0-4.299 1.24-5.938 3.309-1.641-2.068-3.699-3.309-5.939-3.309-2.162 0-4.158 1.157-5.77 3.097-1.613-1.94-3.609-3.097-5.771-3.097zm52.264 0c-5.196 0-9.429 6.646-9.651 14.954 14.853-0.479 28.926-2.704 41.701-6.343-1.593-5.102-4.857-8.611-8.633-8.611-2.24 0-4.298 1.24-5.938 3.309-1.641-2.068-3.699-3.309-5.939-3.309-2.162 0-4.158 1.157-5.77 3.097-1.611-1.94-3.608-3.097-5.77-3.097z" fill="#010101" fill-opacity=".3137"/>
  </g>
  <g transform="matrix(.86763 -.4972 .4972 .86763 -400.37 150.82)">
   <path d="m521.82 462.84c-32.656 11.743 9.613 63.9-25.67 109.41-6.522 8.412 39.278 1.419 55.47-45.195 15.746-45.332 0.769-72.994-29.8-64.216z" fill="#ffd700" stroke="#010101" stroke-width="4"/>
   <path d="m532.515,461.215c-.28,0-.564.014-.849.021 11.004,8.867 15.661,29.388 10.033,57.928-7.482,37.939-36.366,54.307-45.965,55.171 3.116,4.43 41.384-5.516 55.892-47.28 13.778-39.665 4.018-65.806-19.111-65.84z" fill="#010101" fill-opacity=".3137"/>
  </g>
  <g transform="matrix(.91424 .40517 -.40517 .91424 21.917 -301.48)">
   <path d="m415.63 462.84c32.656 11.743-9.613 63.9 25.67 109.41 6.522 8.412-39.278 1.419-55.47-45.195-15.746-45.332-0.769-72.994 29.8-64.216z" fill="#ffd700" stroke="#010101" stroke-width="4"/>
   <path d="m380.9 483.74c-2.343 11.204-0.882 26.25 5.281 43.992 16.192 46.614 61.989 53.613 55.468 45.201-2.789-3.597-5.104-7.245-7-10.902-12.863-3.082-36.686-16.546-47.45-47.534-3.99-11.489-6.009-21.844-6.299-30.757z" fill="#010101" fill-opacity=".3137"/>
  </g>
  <path d="m216.34 282.93c16.63-25.727 13.575-87.379 13.575-87.379l40.726-2.218s-1.019 62.097 15.95 88.267" fill="#ffd700" stroke="#010101" stroke-linecap="round" stroke-linejoin="round" stroke-width="4"/>
  <path transform="translate(-216.73 -178.06)" d="m502.55 462.7a34.108 11.539 0 1 0 -68.216 0 34.108 11.539 0 1 0 68.216 0" fill="#ffd700"/>
  <path d="m270.633,193.328-11.645.636-29.081,1.591c0,0 .164,3.295.213,8.527 8.932,5.604 17.933,8.867 24.244,8.867 2.259,0 4.823-.389 7.572-1.125 4.199,22.631 11.992,54.534 24.456,69.574l-.679.232 .87-.021c-11.68-18.012-14.82-53.047-15.654-73.137-.094-2.275-.166-4.369-.212-6.215-.035-1.476-.052-2.781-.063-3.924-.012-.921-.019-1.613-.021-2.291-.004-1.052-.004-1.187 0-1.633 .002-.708 0-1.081 0-1.081z" fill="#010101" fill-opacity=".3137"/>
  <path d="m284.75 168.47c-8.836-6.217-20.052-9.864-33.225-9.864-11.985 0-22.209 2.85-30.503 7.799-9.486 6.557-17.105 16.083-21.778 27.396-2.153 6.305-3.271 13.17-3.271 20.357 0 30.663 38.096 55.552 55.552 55.552 18.135 0 55.552-24.889 55.552-55.552 0-7.406-1.242-14.472-3.599-20.934-4.212-9.928-10.7-18.452-18.728-24.754z" fill="#ffd700" stroke="#010101" stroke-linecap="round" stroke-linejoin="round" stroke-width="4"/>
  <path d="m302.51 187.74c1.191 5.181 1.782 10.672 1.782 16.375 0 30.663-37.418 55.553-55.552 55.553-14.055 0-41.471-16.125-51.629-38.414 5.169 27.318 38.807 48.447 54.896 48.447 18.133 0 55.552-24.89 55.552-55.552 0-9.558-1.639-18.553-5.049-26.409z" fill="#010101" fill-opacity=".3137"/>
  <path transform="translate(159.34 3.6463)" d="m98.085 244.66c0 13.895-2.4487 25.159-5.4694 25.159s-5.4694-11.264-5.4694-25.159 2.4487-25.159 5.4694-25.159 5.4694 11.264 5.4694 25.159z" fill="#f00" stroke="#000" stroke-width="4"/>
  <g transform="translate(0 64.904)">
   <path d="m233.96 109.67c-12.521 0-22.688 11.756-22.688 26.242 0 14.485 10.167 26.241 22.688 26.241 7.355 0 13.885-4.063 18.029-10.353 4.145 6.293 10.687 10.353 18.047 10.353 12.519 0 22.688-11.756 22.688-26.241 0-14.486-10.169-26.242-22.688-26.242-7.358 0-13.902 4.061-18.047 10.353-4.144-6.286-10.673-10.353-18.029-10.353z" stroke="#010101" stroke-linecap="round" stroke-width="4"/>
   <path d="m252.86 159.85c-6.354 0-13.261 7.066-12.985 11.528s11.328 23.057 13.814 23.057 12.156-18.223 11.881-23.428-8.565-11.53-12.71-11.157z" fill="#010101" fill-opacity=".3137"/>
   <path d="m251.41 152.59c-6.354 0-13.262 6.368-12.984 10.389s11.328 20.778 13.813 20.778 12.157-16.422 11.881-21.113-8.564-10.389-12.71-10.054z" fill="url(#c)" stroke="#010101" stroke-width="4"/>
   <path d="m236.6 113.51c-10.689 0-19.371 10.037-19.371 22.405s8.682 22.405 19.371 22.405c6.281 0 11.855-3.47 15.394-8.839 3.539 5.374 9.125 8.839 15.409 8.839 10.688 0 19.371-10.037 19.371-22.405s-8.683-22.405-19.371-22.405c-6.283 0-11.87 3.467-15.409 8.839-3.538-5.367-9.114-8.839-15.394-8.839z" fill="#fff" stroke="#010101" stroke-linecap="round" stroke-width="4"/>
   <path d="m250.77 137.43c0 3.097-2.511 5.607-5.607 5.607s-5.608-2.511-5.608-5.607 2.511-5.608 5.608-5.608 5.607 2.51 5.607 5.608z" fill="#010101" stroke="#010101" stroke-linecap="round" stroke-width="4"/>
   <path d="m244.59,135.468c0,.803-.65,1.454-1.454,1.454s-1.454-.651-1.454-1.454 .651-1.455 1.454-1.455 1.454.651 1.454,1.455z" fill="#fff"/>
   <path d="m264.97 137.43c0 3.097-2.511 5.607-5.607 5.607s-5.608-2.511-5.608-5.607 2.511-5.608 5.608-5.608 5.607 2.51 5.607 5.608z" fill="#010101" stroke="#010101" stroke-linecap="round" stroke-width="4"/>
   <path d="m258.792,135.468c0,.803-.65,1.454-1.454,1.454s-1.454-.651-1.454-1.454 .65-1.455 1.454-1.455 1.454.651 1.454,1.455z" fill="#fff"/>
  </g>
  <path d="m257.79 152.41c0 13.895-2.4487 25.159-5.4694 25.159s-5.4694-11.264-5.4694-25.159 2.4487-25.159 5.4694-25.159 5.4694 11.264 5.4694 25.159z" fill="#f00" stroke="#000" stroke-width="4"/>
 </g>
</svg>
