<?xml version="1.0" encoding="UTF-8"?>
<svg viewBox="0 0 372.06793 356.5155" xmlns="http://www.w3.org/2000/svg" xmlns:xlink="http://www.w3.org/1999/xlink">
 <defs>
  <filter id="l">
   <feGaussianBlur stdDeviation="1.7785"/>
  </filter>
  <filter id="n">
   <feGaussianBlur stdDeviation=".5938"/>
  </filter>
  <filter id="m" x="-.09478" y="-.34103" width="1.1896" height="1.6821">
   <feGaussianBlur stdDeviation="4.8112"/>
  </filter>
  <linearGradient id="a">
   <stop stop-color="#fff" offset="0"/>
   <stop stop-color="#fff" stop-opacity="0" offset="1"/>
  </linearGradient>
  <radialGradient id="b" cx="427.08" cy="331.97" r="109.97" gradientTransform="matrix(.25074 .0311 -.00997 .08043 284.7 350.08)" gradientUnits="userSpaceOnUse">
   <stop stop-color="#808080" stop-opacity=".9944" offset="0"/>
   <stop offset="1"/>
  </radialGradient>
  <radialGradient id="c" cx="343.47" cy="419.52" r="81.707" gradientTransform="matrix(1 0 0 1.1441 0 -62.009)" gradientUnits="userSpaceOnUse">
   <stop stop-color="#f1f1f1" stop-opacity=".6239" offset="0"/>
   <stop stop-color="#f1f1f1" stop-opacity="0" offset="1"/>
  </radialGradient>
  <radialGradient id="f" cx="334.95" cy="422.15" r="91.72" gradientTransform="matrix(1.3188 .69204 -.8178 1.5584 242.18 -465.22)" gradientUnits="userSpaceOnUse">
   <stop stop-color="#fc2000" offset="0"/>
   <stop offset="1"/>
  </radialGradient>
  <radialGradient id="g" cx="531.31" cy="279.63" r="5.2285" gradientTransform="matrix(-.98752 -.4346 .32386 -.7359 802.73 722.33)" gradientUnits="userSpaceOnUse">
   <stop stop-color="#4f4f4f" offset="0"/>
   <stop stop-color="#070000" stop-opacity=".9922" offset=".7786"/>
   <stop stop-opacity=".9833" offset="1"/>
  </radialGradient>
  <radialGradient id="d" cx="346.12" cy="290.23" r="41.664" gradientTransform="matrix(1.0728 .01872 -.00849 .48641 -31.297 141.67)" gradientUnits="userSpaceOnUse" xlink:href="#a"/>
  <radialGradient id="e" cx="343.22" cy="304.14" r="70.791" gradientTransform="matrix(1 0 0 .41008 0 181.96)" gradientUnits="userSpaceOnUse" xlink:href="#a"/>
 </defs>
 <g transform="translate(-222.54 -331.25)">
  <g transform="translate(68.833 77.829)" opacity=".4">
   <path d="m404.47 257.82c-1.6191 0.28303-4.2194 3.8202-4.375 10.594-4.6292 7.951-10.13 15.47-21.625 21.531-0.32342-0.44641-0.66381-0.87729-1.0312-1.3125 0.0637-0.33278 0.0913-0.69994 0.0625-1.125-0.17469-2.5781-4.3504-5.2592-7.3438-5.4375 3.9756-1.9644 7.3896-4.9467 9.1875-10.281 4.2968-12.749-3.5609-12.76-3.7812-12.688s-2.4262-1.7599-5.2188 11.562c-1.05 5.0092-2.5421 7.193-5.5938 8.9688-6.326-5.3913-15.874-7.7485-24.031-7.9688v-0.0312h-2.0938v0.0312c-8.0921 0.21848-17.576 2.5435-23.906 7.8438-1.9834-1.7662-3.0084-4.0195-3.625-8.1875-1.9922-13.465-4.3156-11.789-4.5312-11.875s-8.028-0.54506-4.5 12.438c1.3789 5.0741 4.2676 8.1924 7.7812 10.375-0.0682 0.0355-0.11971 0.089-0.1875 0.125-2.7754 0.43433-6.21 2.7026-6.6875 5-0.16901 0.17459-0.33797 0.35382-0.5 0.53125-11.197-4.2066-17.467-10.462-23-17.25-2.5816-14.222-13.821-12.03-1 1 5.1774 7.1089 11.126 13.87 22 18.781-2.5101 3.6841-3.449 7.6219-2.0625 10.656-12.732 8.0669-18.203 19.697-19.719 29.719-0.47663 3.1522-0.0929 5.3815 1.0312 6.9062-1.3637 1.047-2.8018 2.2107-4.3438 3.5625-3.9698 3.4804-7.3985 7.5482-10.375 12.062-10.483-6.7809-20.731-15.923-28.656-26.312-13.063 13.358-33.449 20.987-53.906 26 0 0-7.9514-2.7837-10.469-7.125l-1.4062-0.75c1.0994 4.1391 5.0576 7.0551 12.094 9.25 16.672-2.2456 40.909-7.265 53.438-24.156 4.7274 8.4964 14.269 19.226 26.219 27.469-10.138 18.081-13.781 42.19-13.781 66.094 0 3.0423 0.0703 6.0476 0.25 9.0312-12.696-1.8182-26.295-6.0405-38.156-12.5-6.4731 17.527-21.965 32.824-38.594 45.75 0 0-8.3987 0.6857-12.469-2.25l-1.5938-0.125c2.6931 3.3299 7.4932 4.3682 14.812 3.5 14.303-8.8549 34.394-23.31 38.938-43.844 8.2112 6.147 22.318 12.38 37.5 14.781 2.9448 30.588 15.193 57.511 33.031 76.062-10.012 9.398-23.108 17.934-36.875 23.188 9.112 16.312 10.673 38.055 9.6875 59.094 0 0-4.9048 6.8152-9.7812 8l-1.1562 1.1562c4.281 0.11778 8.2148-2.8735 12.312-9 2.5678-16.625 4.6203-41.294-8.0312-58.094 10.586-2.3741 25.552-9.7027 37.625-20.656 15.19 14.193 33.928 22.594 54.219 22.594 21.27 0 40.848-9.1973 56.406-24.656 15.738 5.006 32.705 5.381 43.438 3.0312-4.3702 20.572 7.8993 42.047 17.25 56.031 6.3022 3.8219 11.107 4.8528 14.938 2.9375l-1.5-0.53125c-4.9205 0.98613-12.25-3.125-12.25-3.125-9.7814-18.653-17.556-38.991-16.188-57.625-14.114 1.0123-28.949-1.0115-41.656-4.9688 18.042-20.126 29.827-49.118 31.156-81.625 14.567-2.5751 27.985-8.6013 35.906-14.531 4.5433 20.534 24.634 35.02 38.938 43.875 7.3193 0.86817 12.119-0.17013 14.812-3.5l-1.5938 0.125c-4.0701 2.9357-12.438 2.25-12.438 2.25-16.629-12.926-32.152-28.254-38.625-45.781-11.465 6.2436-24.548 10.43-36.875 12.344 2e-3 -0.31409 0-0.62283 0-0.9375 0-26.883-5.0499-53.597-18.125-72.344 13.145-13.359 21.475-31.75 23.594-44.031 17.408 11.8 41.929 8.5163 58.406 5.125 5.9152-4.3973 8.7055-8.4489 8.375-12.719l-1.0625 1.1875c-0.9409 4.9294-7.5312 10.188-7.5312 10.188-20.964 2.0308-42.724 1.5396-59.469-6.75-5.2776 16.208-14.979 31.759-25.562 42.688-1.7142-2.0784-3.5445-4.0542-5.5-5.875-1.8634-1.735-3.5172-3.1908-5.0938-4.5 0.80348-1.4708 1.2188-3.4137 1.2188-5.9688 0-11.32-6.6996-22.646-20.062-30.281 0.81418-2.3235 0.3735-5.1105-1-7.875 11.556-6.8591 16.793-14.999 21.094-23.406 5.316-7.435 5.1021-11.279 3.5312-11.438-0.0982-0.01-0.20456-0.0189-0.3125 0z" filter="url(#l)"/>
  </g>
  <g transform="translate(68.833 77.829)">
   <path d="m432.21 304.04c-6.0373 18.541-17.876 36.215-30.186 47.102l3.6106 3.8919c15.607-13.459 25.529-34.476 27.869-48.037 17.408 11.8 41.936 8.521 58.413 5.1297 5.9152-4.3973 8.699-8.4541 8.3684-12.724l-1.073 1.1879c-0.94087 4.9294-7.5116 10.182-7.5116 10.182-20.964 2.0308-42.746 1.5567-59.49-6.7328z"/>
   <path d="m232.41 326.59c11.827 15.503 28.842 28.271 44.059 34.477l-2.1213 4.8666c-19.178-7.5441-35.49-24.099-42.181-36.125-12.529 16.891-36.762 21.903-53.434 24.149-7.0362-2.1949-11.004-5.1035-12.104-9.2426l1.4053 0.76651c2.5173 4.3413 10.455 7.1269 10.455 7.1269 20.457-5.0129 40.858-12.66 53.921-26.018z"/>
   <path d="m464.92 411.97c-17.124 9.3257-37.869 14.036-54.294 13.491l-0.0499 5.3086c20.587 0.94102 42.235-7.5145 53.253-15.762 4.5433 20.534 24.62 35.001 38.923 43.856 7.3193 0.86817 12.129-0.16738 14.822-3.4972l-1.5958 0.12614c-4.0701 2.9357-12.453 2.2388-12.453 2.2388-16.629-12.926-32.132-28.234-38.605-45.761z"/>
   <path d="m206.69 419.89c17.124 9.3257 37.869 14.036 54.294 13.491l0.0499 5.3086c-20.587 0.94102-42.235-7.5145-53.253-15.762-4.5433 20.534-24.62 35.001-38.923 43.856-7.3193 0.86817-12.129-0.16738-14.822-3.4972l1.5958 0.12614c4.0701 2.9357 12.453 2.2388 12.453 2.2388 16.629-12.926 32.132-28.234 38.605-45.761z"/>
   <path d="m438.41 516.11c-19.449 1.3949-40.282-2.9106-55.005-10.21l-2.2443 4.8111c18.348 9.3841 41.554 10.655 54.998 7.7117-4.3703 20.572 7.9107 42.055 17.261 56.039 6.3022 3.8219 11.109 4.8717 14.94 2.9564l-1.5047-0.54616c-4.9205 0.98613-12.262-3.1207-12.262-3.1207-9.7813-18.653-17.551-39.008-16.182-57.642z"/>
   <path d="m241.45 536.99c18.218-6.9519 35.281-19.655 45.543-32.491l4.0666 3.4126c-12.667 16.257-33.163 27.212-46.592 30.224 12.652 16.8 10.596 41.46 8.0281 58.085-4.0977 6.1265-8.011 9.1086-12.292 8.9908l1.1331-1.1307c4.8765-1.1848 9.796-8.0087 9.796-8.0087 0.98571-21.039-0.57088-42.77-9.6829-59.082z"/>
  </g>
  <g transform="translate(68.833 77.829)">
   <path d="m428.03 423.37c0 64.452-41.064 116.7-91.72 116.7s-91.72-52.249-91.72-116.7c0-32.226 6.6666-64.812 26.864-82.52 19.569-17.157 22.462-8.3106 67.551-10.376 42.354-1.9397 43.912-6.6161 62.161 10.376 19.658 18.304 26.864 50.294 26.864 82.52z" fill="url(#f)"/>
  </g>
  <g transform="translate(68.833 77.829)">
   <path transform="matrix(1.4872 0 0 1.4872 -168.24 -121.65)" d="m387.41 375.85c0 7.8503-5.8205 13.696-13 12.838-7.1292-0.85208-12.697-4.8368-12.697-11.927s6.4355-11.899 13.608-12.231c6.5727-0.30364 12.09 4.2295 12.09 11.32z"/>
   <path transform="matrix(1.4872 0 0 1.4872 -278.57 -130.88)" d="m387.41 375.85c0 7.0902-5.2132 14.356-13 12.838-7.0473-1.374-12.393-6.0514-13-12.838-0.63194-7.062 5.844-12.257 13-12.838 7.4836-0.60729 13 8.4806 13 12.838z"/>
   <path d="m316 491.87c2.4162 10.264 1.3408 19.299-9.0534 21.746s-20.895-5.1145-25.654-14.525c-5.3238-10.528 1.1174-18.93 11.512-21.376s20.779 3.8906 23.195 14.155z"/>
   <path d="m347.45 492.78c-2.4221 10.263-1.3518 19.299 9.041 21.751s20.898-5.1026 25.662-14.51c5.3298-10.525-1.1066-18.93-11.499-21.383s-20.781 3.8787-23.203 14.142z"/>
   <path d="m291.24 383.45c-10.336-2.0867-18.099-6.8337-15.986-17.301s13.366-16.856 23.903-17.254c11.789-0.44557 16.737 8.9134 14.624 19.381s-12.205 17.261-22.542 15.174z"/>
   <path d="m379.93 383.99c10.205-2.3493 15.818-7.928 15.57-19.278s-13.651-16.767-25.479-14.828c-11.642 1.9083-15.783 10.511-12.654 20.721s12.357 15.735 22.563 13.386z"/>
   <path d="m423.34 430.42c-3.3947 64.393-42.583 105.94-87.708 105.94s-86.609-52.011-87.246-103.63c-1.3849-112.1 44.033-89.163 88.17-98.556 53.215-11.326 91.182 12.847 86.785 96.248z" fill="url(#c)" opacity=".7522"/>
   <path transform="matrix(0 -1 1 0 -63.904 787.49)" d="m248.44 400.66c63.105-13.035 180.29-12.47 216.09 5.4835-46.999-24.133-150.05-30.438-216.09-5.4835z" fill="url(#b)" filter="url(#n)" stroke="#000" stroke-width="2"/>
  </g>
  <g transform="translate(68.833 77.829)">
   <path id="j" d="m352.45 297.3 1.8199 3.8907c28.229-7.987 36.646-19.89 43.037-32.383 10.632-14.87-0.80147-15.296-1.1334-0.84567-6.9206 11.887-15.793 22.817-43.724 29.338z"/>
   <use transform="matrix(-.98776 .15596 .15596 .98776 625.07 -56.255)" width="380.7489" height="359.60327" xlink:href="#j"/>
   <path d="m347.44 284.95 1.5788 2.2572c8.6677-3.6523 22.085-3.1251 26.382-15.874s-3.5496-12.755-3.77-12.683-2.4307-1.7598-5.2233 11.563c-2.021 9.6417-5.6535 8.8436-18.968 14.737z"/>
   <path d="m325.21 286.71-1.7108 2.1589c-8.4342-4.1633-21.859-4.4382-25.387-17.421s4.3049-12.521 4.5205-12.435 2.5314-1.6116 4.5236 11.854c1.4418 9.7452 5.1154 9.1654 18.054 15.843z"/>
   <path d="m397.28 330.37c0 10.078-6.5254 10.767-17.369 9.705-25.858-2.5314-38.03 12.149-46.68 11.683s-7.6326-14.406-41.09-11.768c-11.799 0.93057-18.895 0.34436-17.388-9.6201 2.5906-17.133 16.683-38.979 59-39.656s63.527 19.501 63.527 39.656z"/>
   <path transform="matrix(.85487 0 0 1.0473 49.236 -7.385)" d="m339.53 291.51c-38.641 0.0612-73.839 15.489-62.702 30.342 6.419 8.5614 42.188-1.251 60.861-0.89158s59.951 8.7539 58.854-1.2973c0.21401-16.732-18.372-28.215-57.014-28.154z" fill="url(#e)" filter="url(#m)" opacity=".4336"/>
   <path transform="translate(147.75 254.31)" d="m187.44 16.875v0.03125c-8.7011 0.23492-19.013 2.9081-25.281 9.0938-11.918 4.1286-19.822 16.907-13.188 22.688 6.0168 6.2696 28.459-3.3171 38.844-3.375 0.29057-0.0016 0.57267-0.01387 0.84375 0 10.385 0.05792 32.796 9.6446 38.812 3.375 6.6345-5.7802-1.2696-18.559-13.188-22.688-6.2679-6.1856-16.549-8.8588-25.25-9.0938v-0.03125h-1.5938z"/>
   <path d="m334.69 271.18v0.0312c-8.7011 0.23492-19.013 2.9081-25.281 9.0938-11.918 4.1286-19.822 16.907-13.188 22.688 6.0168 6.2696 28.459-3.3171 38.844-3.375 0.29057-2e-3 0.57267-0.0139 0.84375 0 10.385 0.0579 32.796 9.6446 38.812 3.375 6.6345-5.7802-1.2696-18.559-13.188-22.688-6.2679-6.1856-16.549-8.8588-25.25-9.0938v-0.0312h-1.5938z" fill="url(#d)" opacity=".3053"/>
   <path id="k" d="m351.6 292.87c-4.6734-0.88039-8.2308-4.5467-6.5168-8.1188 0.98791-2.0589 6.0529-2.8985 8.3208-2.5732s5.3683 2.6309 4.9876 5.1922c-0.38714 4.3095-2.1182 6.3802-6.7916 5.4998z" fill="#e3e2db"/>
   <use transform="matrix(-.98407 .17776 .17776 .98407 615.56 -57.773)" width="380.7489" height="359.60327" xlink:href="#k"/>
   <path id="i" d="m368.24 306.03c4.741 0.0876 6.1748-0.78156 9.6563-4.0291 5.8848 1.8386 13.907 10.801 15.142 16.521-3.8465 3.9348-10.263 0.9677-18.479 1.2835-6.2476-8.1756-1.6968-5.5681-6.319-13.775z" fill="#e3e2db"/>
   <use transform="matrix(-.99894 .04613 .04613 .99894 657.91 -16.945)" width="380.7489" height="359.60327" xlink:href="#i"/>
   <path id="h" d="m367.53 289.48c-3.3518-1.3496-5.9289-4.9482-3.6505-7.1836s9.4368 1.3674 9.6672 4.7679-2.6648 3.7654-6.0166 2.4157z" fill="url(#g)"/>
   <use transform="matrix(-1 0 0 1 672.53 .23377)" width="380.7489" height="359.60327" xlink:href="#h"/>
  </g>
 </g>
</svg>
