<?xml version="1.0" encoding="UTF-8"?>
<svg viewBox="0 0 1052.362179 744.09447" xmlns="http://www.w3.org/2000/svg">
 <path d="m257.02 345.91s-32.327 147.22-2.7666 212.6c12.845 28.407 39.54 57.033 71.931 64.035 38.626 8.3497 83.651-9.0396 113.43-33.298 21.373-17.411 22.035-48.733 35.966-71.719 22.779-37.585 37.529-85.434 77.465-107.58 24.64-13.663 58.601-16.325 85.764-7.6842 45.653 14.522 73.803 58.208 105.13 92.21 27.556 29.909 35.873 76.574 71.931 97.333 16.613 9.5642 39.148 12.179 58.099 7.6842 26.8-6.3569 50.376-25.224 66.398-46.105 49.321-64.277 77.465-225.4 77.465-225.4s4.3306 193.15-47.032 271.51c-20.86 31.824-57.574 58.548-96.831 66.596-31.255 6.4081-65.529-4.4958-94.064-17.93-24.441-11.506-42.747-32.174-60.865-51.228-22.315-23.468-30.358-59.011-58.098-76.842-21.129-13.582-50.619-26.305-74.698-17.93-22.987 7.9949-29.414 36.56-41.499 56.351-18.48 30.264-20.402 70.261-47.032 94.772-30.148 27.749-74.255 42.249-116.2 48.667-37.481 5.7351-79.536 5.6385-113.43-10.246-32.047-15.018-56.282-44.349-71.931-74.281-35.473-67.846-41.499-222.84-41.499-222.84z" fill="#008000" stroke="#000" stroke-width="4.0951"/>
 <path d="m214.14 376.65 30.433-2.5614-19.366 78.123z" fill="#e6e6e6" stroke="#000" stroke-width="4.0951"/>
 <path d="m68.89 370.25 11.066 73 11.066-64.035z" fill="#ececec" stroke="#000" stroke-width="4.0951"/>
 <path d="m146.35 379.21c-9.9782-1.5218-16.373 12.051-20.749 20.491-4.2328 8.1641-3.0964 17.891-4.1499 26.895-1.3446 11.491-0.70833 23.179-2.7666 34.579-1.4936 8.2725-4.0761 16.369-6.9165 24.333-3.8927 10.915-13.833 32.017-13.833 32.017l20.749-32.017 4.1499-6.4035 2.7666 46.105s3.9439-34.105 4.1499-51.228c0.0976-8.1218-1.3614-16.211-1.3833-24.333-0.0242-8.975-0.67586-18.124 1.3833-26.895 1.5823-6.7394 3.7251-13.767 8.2998-19.211 3.8514-4.5826 13.618-4.6308 15.216-10.246 1.4199-4.9879-1.4191-13.249-6.9165-14.088z" fill="#f00" stroke="#000" stroke-width="4.0951"/>
 <path transform="matrix(1.2011 0 0 1.112 -130.31 -46.12)" d="m357.01 267.31a111.71 161.23 0 1 1 -223.42 0 111.71 161.23 0 1 1 223.42 0z" fill="#008000" stroke="#000" stroke-linejoin="round" stroke-width="3.5433"/>
 <path d="m122.84 400.99c17.501 8.7837 38.384 15.367 58.099 12.807 16.765-2.1766 31.627-12.624 44.266-23.053 17.007-14.033 30.129-32.271 40.116-51.228 13.883-26.352 23.816-55.296 26.283-84.526 2.027-24.019-0.24735-49.266-9.6831-71.719-7.7938-18.546-37.349-48.667-37.349-48.667s16.566 40.357 20.749 61.474c4.1669 21.033 8.145 42.974 4.1499 64.035-3.8226 20.152-16.499 38.005-26.283 56.351-7.9506 14.909-13.37 31.988-26.283 43.544-12.307 11.014-28.964 18.236-45.649 21.772-17.535 3.7162-36.696 3.4353-53.949-1.2807-18.658-5.1-49.799-28.175-49.799-28.175s32.967 37.442 55.332 48.667z" fill="#009e00"/>
 <path d="m118.33 28.562c-0.85182 0.01143-1.6973 0.05943-2.5524 0.13901-27.365 2.5464-45.762 39.397-41.102 82.327s30.627 75.664 57.993 73.118c12.51-1.1641 23.137-9.5021 30.554-22.311 4.889 19.082 15.563 32.761 30.479 35.933 27.55 5.8591 59.016-26.265 70.304-71.762s-1.8784-87.136-29.428-92.995c-23.345-4.965-49.535 17.342-63.848 51.954-8.3954-33.067-29.695-56.707-52.4-56.402z" fill="#fff" stroke="#000" stroke-linejoin="round" stroke-width="4.0951"/>
 <path transform="matrix(1.2011 0 0 1.112 -130.31 -46.12)" d="m225.72 343.32a19.578 18.426 0 1 1 -39.156 0 19.578 18.426 0 1 1 39.156 0z" fill="#009e00" stroke="#000" stroke-linejoin="round" stroke-width="3.5433"/>
 <path transform="matrix(1.2011 0 0 1.112 -48.69 -40.997)" d="m225.72 343.32a19.578 18.426 0 1 1 -39.156 0 19.578 18.426 0 1 1 39.156 0z" fill="#009e00" stroke="#000" stroke-linejoin="round" stroke-width="3.5433"/>
 <path transform="matrix(1.2011 0 0 1.112 -130.31 -46.12)" d="m236.09 167.69a16.699 29.367 0 1 1 -33.398 0 16.699 29.367 0 1 1 33.398 0z" fill="none" stroke="#000" stroke-linejoin="round" stroke-width="14.173"/>
 <path transform="matrix(1.2011 0 0 1.112 -134.45 -61.488)" d="m291.37 183.82a15.547 28.216 0 1 1 -31.095 0 15.547 28.216 0 1 1 31.095 0z" fill="none" stroke="#000" stroke-linejoin="round" stroke-width="14.173"/>
 <path d="m57.823 87.214 102.36-58.912" fill="none" stroke="#008000" stroke-width="8.1903"/>
 <path d="m176.79 39.828 107.9 49.947" fill="none" stroke="#008000" stroke-width="8.1903"/>
 <path d="m158.8 173.02s-12.337 32.855-15.216 49.947c-2.0615 12.24-2.4721 24.794-1.3833 37.14 1.9132 21.696 10.067 42.548 13.833 64.035 1.191 6.7947 2.7666 20.491 2.7666 20.491s-1.0814-41.024-2.7666-61.474c-1.2706-15.418-5.6064-30.642-5.5332-46.105 0.10181-21.498 8.2998-64.035 8.2998-64.035z" fill="#009e00"/>
 <path d="m57.823 178.14s38.095 35.929 62.248 34.579c15.743-0.88017 37.349-26.895 37.349-26.895s20.628 33.67 38.732 35.86c26.428 3.1965 69.165-37.14 69.165-37.14" fill="none" stroke="#000" stroke-width="4.0951"/>
 <path d="m189.24 557.23s7.3394 39.693 16.6 57.632c6.4029 12.403 16.345 23.084 26.283 33.298 8.7393 8.9829 17.811 18.176 29.049 24.333 10.918 5.9817 23.563 9.0554 35.966 11.526 14.937 2.9758 30.372 4.0804 45.649 3.8421 18.585-0.28992 37.262-2.3704 55.332-6.4035 20.987-4.6842 43.101-9.1344 60.865-20.491 18.026-11.524 31.04-29.043 42.882-46.105 17.288-24.908 40.116-80.684 40.116-80.684s-43.913 65.458-73.315 92.21c-12.501 11.375-26.824 21.672-42.882 28.175-24.608 9.9655-51.999 14.687-78.848 15.368-24.25 0.61585-50.02-0.60548-71.931-10.246-17.397-7.6542-30.668-22.071-42.882-35.86-17.702-19.983-42.882-66.596-42.882-66.596z" fill="#009e00"/>
 <path d="m501.86 509.84s12.546-35.12 22.133-51.228c7.9676-13.387 15.565-28.321 29.049-37.14 13.347-8.7297 30.703-12.224 47.032-12.807 15.543-0.55453 31.977 2.0959 45.649 8.9649 13.182 6.6232 21.378 19.485 31.816 29.456 14.53 13.879 29.757 27.232 42.882 42.263 13.75 15.747 25.443 32.961 37.349 49.947 8.2217 11.731 23.516 35.86 23.516 35.86s-37.192-36.456-55.332-55.07c-13.134-13.477-25.338-27.727-38.732-40.982-11.137-11.022-20.248-24.829-34.582-32.018-15.744-7.8961-34.722-11.627-52.565-10.246-13.823 1.0701-27.357 6.7386-38.732 14.088-13.66 8.825-21.772 23.359-33.199 34.579-8.4998 8.3458-26.283 24.333-26.283 24.333z" fill="#009e00"/>
 <path d="m756.39 607.18s24.475 29.497 41.499 38.421c13.235 6.9378 29.058 10.007 44.266 10.246 13.202 0.20711 26.222-3.7754 38.732-7.6842 16.417-5.1293 34.02-9.8984 47.032-20.491 19.308-15.718 29.926-38.938 41.499-60.193 10.446-19.186 24.899-60.193 24.899-60.193s-39.619 66.998-70.548 90.93c-16.459 12.735-37.324 20.67-58.098 25.614-22.815 5.4293-47.613 8.8183-70.548 3.8421-14.478-3.1412-38.732-20.491-38.732-20.491z" fill="#009e00"/>
 <path d="m171.25 448.37 56.715 34.579-40.116 67.877 67.782 32.018-13.833 73 71.931-23.053 23.516 58.912 42.882-58.912 53.949 39.702 12.45-70.438 67.782 10.246-23.516-87.088 55.332-3.8421-15.216-78.123 70.548 42.263 29.049-70.438 29.049 88.368 65.015-8.9649-5.5332 76.842 59.482 2.5614 6.9165 64.035 45.649-26.895 41.499 34.579 31.816-43.544 41.499 2.5614 4.1499-38.421 24.899-16.649-5.5332-29.456 26.283-14.088-8.2998-16.649 15.216-34.579 1.3833-23.053" fill="none" opacity=".3628" stroke="#efff00" stroke-linecap="round" stroke-linejoin="round" stroke-width="16.381"/>
</svg>
