<?xml version="1.0" encoding="UTF-8"?>
<svg width="223.07" height="275.34" viewBox="0 0 223.074 275.341" xmlns="http://www.w3.org/2000/svg">
 <path d="m221.07 147.27c0.018 60.508-49.028 109.57-109.54 109.57s-109.56-49.061-109.54-109.57c-0.019-60.508 49.028-109.57 109.54-109.57s109.56 49.061 109.54 109.57z" fill="#939dac" stroke="#010101" stroke-linecap="round" stroke-linejoin="round" stroke-width="4"/>
 <path d="m220.65 156.86c-20.835 45.696-66.936 77.469-120.44 77.469-30.327 0-58.251-10.211-80.563-27.375 19.534 30.03 53.378 49.875 91.875 49.875 57.279 0 104.29-43.948 109.13-99.969z" fill="#010101" fill-opacity=".3137"/>
 <path d="m14.479 247.77c-7e-3 22.68 18.377 25.569 41.057 25.569s41.063-2.89 41.058-25.569c6e-3 -22.68-19.15-35.199-41.058-41.069-34.08-9.132-41.063 18.39-41.057 41.069z" fill="#939dac" stroke="#010101" stroke-linecap="round" stroke-linejoin="round" stroke-width="4"/>
 <path d="m68.531,211.193c5.617,7.362 9.065,16.555 9.063,27.906 .007,26.823-18.383,30.25-41.063,30.25-3.51,0-6.904-.105-10.156-.344 7.439,3.611 17.751,4.344 29.156,4.344 22.68,0 41.069-2.913 41.063-25.594 .005-18.023-12.1-29.609-28.063-36.562z" fill="#010101" fill-opacity=".3137"/>
 <path d="m87.495 260.56c1.644 6.127-3.251 8.274-9.547 9.962s-11.607 2.273-13.248-3.854 2.129-12.462 8.424-14.149c6.296-1.689 12.73 1.913 14.371 8.041z" fill="#fff" stroke="#010101" stroke-linecap="round" stroke-linejoin="round" stroke-width="4"/>
 <path d="m46.054 267.2c-1.641 6.129-6.952 5.541-13.248 3.855s-11.19-3.836-9.547-9.963 8.075-9.729 14.371-8.041c6.295 1.687 10.067 8.022 8.424 14.149z" fill="#fff" stroke="#010101" stroke-linecap="round" stroke-linejoin="round" stroke-width="4"/>
 <path d="m66.336 266.19c2e-3 6.344-5.281 7.151-11.8 7.151s-11.801-0.808-11.799-7.151 5.281-11.487 11.799-11.487 11.802 5.144 11.8 11.487z" fill="#fff" stroke="#010101" stroke-linecap="round" stroke-linejoin="round" stroke-width="4"/>
 <path d="m208.59 247.77c6e-3 22.68-18.377 25.569-41.058 25.569s-41.064-2.89-41.057-25.569c-7e-3 -22.68 19.151-35.199 41.057-41.069 34.082-9.132 41.064 18.39 41.058 41.069z" fill="#939dac" stroke="#010101" stroke-linecap="round" stroke-linejoin="round" stroke-width="4"/>
 <path d="m200.5 260.56c1.644 6.127-3.251 8.274-9.547 9.962s-11.607 2.273-13.248-3.854 2.129-12.462 8.424-14.149 12.73 1.913 14.371 8.041z" fill="#fff" stroke="#010101" stroke-linecap="round" stroke-linejoin="round" stroke-width="4"/>
 <path d="m159.05 267.2c-1.641 6.129-6.952 5.541-13.248 3.855s-11.19-3.836-9.547-9.963 8.075-9.729 14.371-8.041c6.295 1.687 10.068 8.022 8.424 14.149z" fill="#fff" stroke="#010101" stroke-linecap="round" stroke-linejoin="round" stroke-width="4"/>
 <path d="m179.34 266.19c2e-3 6.344-5.281 7.151-11.8 7.151s-11.801-0.808-11.799-7.151 5.281-11.487 11.799-11.487 11.802 5.144 11.8 11.487z" fill="#fff" stroke="#010101" stroke-linecap="round" stroke-linejoin="round" stroke-width="4"/>
 <path d="m186.058,205.515c10.562,8.152 13.348,24.672 13.344,39.25 .007,23.469-19.008,26.469-42.469,26.469-5.091,0-9.945-.165-14.469-.625 6.935,2.22 15.622,2.719 25.063,2.719 22.68,0 41.069-2.882 41.063-25.563 .004-17.769-4.287-38.493-22.532-42.25z" fill="#010101" fill-opacity=".3137"/>
 <path d="m213.79 122.77c7 42-24.737 75.697-91.921 83.25-56.333 6.333-111.35-31.193-111.33-79 32-48.667 121.96-103.71 122.46-55.903 0.211 20.57 56.799-29.597 80.799 51.653z" fill="#010101" fill-opacity=".3137"/>
 <path d="m192.9 91.985c-1.039-14.407-4.696-27.927-10.387-39.897 6.41-4.801 10.701-13.3 10.701-22.971 0-14.967-10.213-27.117-22.788-27.117-8.129 0-15.236 5.104-19.269 12.733-12.013-8.094-25.888-12.733-40.669-12.733s-28.625 4.643-40.636 12.733c-4.032-7.629-11.14-12.733-19.269-12.733-12.576 0-22.788 12.15-22.788 27.117 0 9.684 4.276 18.174 10.701 22.971-5.691 11.97-9.348 25.491-10.387 39.899-10.487 11.029-16.604 24.279-16.604 38.535 0 38.384 44.323 69.5 99 69.5s99-31.116 99-69.5c0-14.256-6.118-27.507-16.605-38.537z" fill="#939dac" stroke="#010101" stroke-linecap="round" stroke-linejoin="round" stroke-width="4"/>
 <path d="m163.07 138.89c-3.86 7.963-10.946 11.702-15.825 8.35s-5.7-12.521-1.837-20.482 10.948-11.698 15.825-8.348 5.7 12.521 1.837 20.48z" fill="#010101"/>
 <path d="m57.941 138.89c3.86 7.963 10.948 11.702 15.825 8.35s5.7-12.521 1.835-20.482c-3.858-7.96-10.946-11.698-15.823-8.348s-5.7 12.521-1.837 20.48z" fill="#010101"/>
 <path d="m169.67 14.799c-4.57 0-8.562 2.865-10.839 7.147 6.99 5.602 13.007 12.755 17.711 21.075 3.587-2.712 5.978-7.503 5.978-12.931-1e-3 -8.438-5.759-15.291-12.85-15.291z" fill="#e6e6e6" stroke="#010101" stroke-linecap="round" stroke-linejoin="round" stroke-width="4"/>
 <path d="m49.493 14.799c4.57 0 8.562 2.865 10.839 7.147-6.989 5.602-13.007 12.755-17.71 21.075-3.588-2.712-5.979-7.503-5.979-12.931 0-8.438 5.759-15.291 12.85-15.291z" fill="#e6e6e6" stroke="#010101" stroke-linecap="round" stroke-linejoin="round" stroke-width="4"/>
 <path d="m156.54 73.801c3e-3 12.519-10.145 22.669-22.663 22.669s-22.667-10.15-22.663-22.669 10.144-22.669 22.663-22.669 22.666 10.15 22.663 22.669z" fill="#fff" stroke="#010101" stroke-linecap="round" stroke-linejoin="round" stroke-width="4"/>
 <path d="m136.39 77.801c2e-3 4.173-3.381 7.557-7.554 7.557s-7.556-3.384-7.555-7.557 3.382-7.557 7.555-7.557 7.556 3.384 7.554 7.557z" fill="#010101"/>
 <path d="m103.8 73.801c4e-3 12.519-10.145 22.669-22.663 22.669s-22.666-10.15-22.663-22.669 10.145-22.669 22.663-22.669 22.667 10.15 22.663 22.669z" fill="#fff" stroke="#010101" stroke-linecap="round" stroke-linejoin="round" stroke-width="4"/>
 <path d="m94.362 77.801c2e-3 4.173-3.381 7.557-7.554 7.557s-7.556-3.384-7.555-7.557 3.382-7.557 7.555-7.557 7.556 3.384 7.554 7.557z" fill="#010101"/>
 <path d="m207.54 117.02c-4.93 47.578-28.332 65.369-82 71.333-24 2.667-39.333 5.334-83.667-7 40.667 21.334 47 16.667 79 17.667 24.501 0.766 64-10.334 83.667-45.667 11-27 3.98-31.113 3-36.333z" fill="#010101" fill-opacity=".3137"/>
 <path d="m127.42 177.26c6.811-1.1 15.261-5.862 18.729-9.961 3.561-4.207 5.645 14.967 4.555 17.599-0.999 2.414-9.403 6.644-11.862 6.31-2.645-0.359-17.792-12.921-11.422-13.948z" fill="#fff" stroke="#010101" stroke-linejoin="round" stroke-width="4"/>
</svg>
