<?xml version="1.0" encoding="UTF-8"?>
<svg viewBox="0 0 637.8 425.2" xmlns="http://www.w3.org/2000/svg" xmlns:xlink="http://www.w3.org/1999/xlink">
 <defs>
  <filter id="v" x="-.24392" y="-.34252" width="1.4878" height="1.685">
   <feGaussianBlur stdDeviation="1.309236"/>
  </filter>
  <filter id="a" x="-.13151" y="-.13151" width="1.263" height="1.263">
   <feGaussianBlur stdDeviation="7.305937"/>
  </filter>
  <filter id="w" x="-.22985" y="-.32276" width="1.4597" height="1.6455">
   <feGaussianBlur stdDeviation="1.233703"/>
  </filter>
  <filter id="y" x="-.032486" y="-.17489" width="1.065" height="1.3498">
   <feGaussianBlur stdDeviation="7.57868"/>
  </filter>
  <filter id="z" x="-.13185" y="-.12979" width="1.2637" height="1.2596">
   <feGaussianBlur stdDeviation="7.270656"/>
  </filter>
  <filter id="u" x="-.18634" y="-.60026" width="1.3727" height="2.2005">
   <feGaussianBlur stdDeviation="3.871268"/>
  </filter>
  <filter id="x" x="-.17499" y="-.21214" width="1.35" height="1.4243">
   <feGaussianBlur stdDeviation="1.062009"/>
  </filter>
  <filter id="t" x="-.18669" y="-.60138" width="1.3734" height="2.2028">
   <feGaussianBlur stdDeviation="3.878503"/>
  </filter>
  <filter id="s" x="-.13556" y="-.27316" width="1.2711" height="1.5463">
   <feGaussianBlur stdDeviation="3.447767"/>
  </filter>
  <filter id="p" x="-.13528" y="-.2726" width="1.2706" height="1.5452">
   <feGaussianBlur stdDeviation="3.440573"/>
  </filter>
  <linearGradient id="aa" x1=".56105" x2="1.0986" y1=".84575" y2=".47944" spreadMethod="reflect">
   <stop offset="0"/>
   <stop stop-opacity="0" offset="1"/>
  </linearGradient>
  <linearGradient id="ab" x1=".80937" x2=".40819" y1=".73242" y2=".40167" xlink:href="#r"/>
  <linearGradient id="r">
   <stop stop-color="#dfdfdb" offset="0"/>
   <stop stop-color="#fff" offset="1"/>
  </linearGradient>
  <linearGradient id="ac" x1=".092086" x2=".94534" y1=".75924" y2=".5" xlink:href="#r"/>
  <radialGradient id="q" cx="170.01" cy="665.23" r="68.417" gradientTransform="matrix(1.397 0 0 1.1379 -67.492 -91.758)" gradientUnits="userSpaceOnUse">
   <stop stop-color="#73d216" offset="0"/>
   <stop stop-color="#4e9a06" offset="1"/>
  </radialGradient>
 </defs>
 <g stroke-linecap="round" stroke-linejoin="round">
  <path d="m70.188 281.37c-46.569 0.04538-49.082 9.7718-49.891 17.538-1.5235 14.619 92.345 48.694 218.66 61.858 43.526 4.536 84.372 7.3335 119.28 8.5 11.187 19.115 54.348 33.375 105.84 33.375 59.985 0 108.69-19.352 108.69-43.188 0-23.835-48.702-43.188-108.69-43.188-29.7 0-56.597 4.7562-76.219 12.438-38.956-7.7944-88.802-15.219-143.38-20.906-59.21-6.1705-133.21-26.467-174.3-26.427h1.5e-5z" fill="#2e3436" filter="url(#y)" opacity=".215" stroke-width="3"/>
  <g stroke-width="2.824">
   <path d="m93.991 252.52a37.349 37.349 0 1 1 -74.698 0 37.349 37.349 0 1 1 74.698 0z" fill="url(#q)" stroke="#2e3436"/>
   <path d="m134.49 290.41a41.97 36.416 0 1 1 -83.94 -35.047 41.97 36.416 0 1 1 83.94 35.047z" fill="#2e3436" filter="url(#z)" opacity=".365"/>
   <path d="m149.92 269.8a47.215 47.215 0 1 1 -94.43 0 47.215 47.215 0 1 1 94.43 0z" fill="#ff7f00" stroke="#2e3436"/>
  </g>
  <path d="m197.77 276.37a55.616 48.492 0 1 1 -111.23 0 55.616 48.492 0 1 1 111.23 0z" fill="#2e3436" filter="url(#a)" opacity=".365" stroke-width="2.333"/>
  <path d="m206.35 275.86a53.142 53.142 0 1 1 -106.28 0 53.142 53.142 0 1 1 106.28 0z" fill="#00007f" stroke="#2e3436" stroke-width="2.509"/>
  <path d="m250.7 280.44a57.143 54.598 0 1 1 -114.29 0 57.143 54.598 0 1 1 114.29 0z" fill="#2e3436" filter="url(#a)" opacity=".365" stroke-width="2.333"/>
  <path d="m255.39 277.89a55.728 55.728 0 1 1 -111.46 0 55.728 55.728 0 1 1 111.46 0z" fill="#ff0" stroke="#2e3436" stroke-width="2.393"/>
  <path d="m294.46 282.83a57.143 52.208 0 1 1 -114.29 0 57.143 52.208 0 1 1 114.29 0z" fill="#2e3436" filter="url(#a)" opacity=".283" stroke-width="2.333"/>
  <path d="m306.7 277.89a58.557 58.557 0 1 1 -117.12 0 58.557 58.557 0 1 1 117.12 0z" fill="#f00" stroke="#2e3436" stroke-width="2.277"/>
  <path d="m341.28 277.89a57.143 57.143 0 1 1 -114.29 0 57.143 57.143 0 1 1 114.29 0z" fill="#2e3436" filter="url(#a)" opacity=".242" stroke-width="2.333"/>
  <path d="m354.6 275.86a59.972 59.972 0 1 1 -119.94 0 59.972 59.972 0 1 1 119.94 0z" fill="url(#q)" stroke="#2e3436" stroke-width="2.223"/>
  <g stroke-width="2.333">
   <path d="m389.11 269.24a57.143 52.563 0 1 1 -114.29 0 57.143 52.563 0 1 1 114.29 0z" fill="#2e3436" filter="url(#a)" opacity=".242"/>
   <path d="m400.26 263.73a57.143 57.143 0 1 1 -114.29 0 57.143 57.143 0 1 1 114.29 0z" fill="#7f00ff" stroke="#2e3436"/>
   <path d="m437.96 254.99a57.143 50.527 0 1 1 -114.29 0 57.143 50.527 0 1 1 114.29 0z" fill="#2e3436" filter="url(#a)" opacity=".242"/>
   <path d="m448.75 247.57a57.143 57.143 0 1 1 -114.29 0 57.143 57.143 0 1 1 114.29 0z" fill="#ff007f" stroke="#2e3436"/>
   <path d="m484.78 226.5a57.143 50.527 0 1 1 -114.29 0 57.143 50.527 0 1 1 114.29 0z" fill="#2e3436" filter="url(#a)" opacity=".242"/>
  </g>
  <path d="m567.15 172.82a102.81 102.81 0 1 1 -205.62 0 102.81 102.81 0 1 1 205.62 0z" fill="url(#q)" stroke="#2e3436" stroke-width="1.297"/>
  <g fill="#4e9a06" stroke-width="2">
   <path d="m539.33 118.57c-2.9606-14.897-16.907-24.953-29.655-25.846-12.748-0.89349-36.867 2.9441-36.819 13.88 0.048035 10.938 7.7221-1.1486 35.078-1.2763 27.356-0.12775 34.348 28.097 31.396 13.242z" filter="url(#p)" opacity=".61"/>
   <path d="m398.73 118.57c2.9606-14.897 16.907-24.953 29.655-25.846 12.748-0.89349 36.867 2.9441 36.819 13.88-0.048035 10.938-7.7221-1.1486-35.078-1.2763-27.356-0.12775-34.348 28.097-31.396 13.242z" filter="url(#p)" opacity=".61"/>
  </g>
  <g stroke="#2e3436">
   <g stroke-width="2">
    <path d="m435.17 111.33c-15.377 0-27.875 16.298-27.875 36.406 0 7.4225 1.7061 14.334 4.625 20.094 4.4978-1.2064 9.1548-2.2498 13.969-3.0938 12.231-2.1442 24.029-2.79 34.719-2.1562 1.5473-4.5307 2.4062-9.5638 2.4062-14.844 0-20.109-12.467-36.406-27.844-36.406z" fill="url(#ac)"/>
    <path d="m437.71 137.95c-10.195 0-18.469 8.2734-18.469 18.469 0 3.3173 0.87311 6.4333 2.4062 9.125 1.399-0.28416 2.8234-0.56239 4.25-0.8125 10.196-1.7875 20.078-2.5121 29.281-2.3438 0.63864-1.8711 1-3.8822 1-5.9688 0-10.195-8.2733-18.469-18.469-18.469z" fill="#007fff"/>
   </g>
   <path d="m438.74 152.5c-3.3048 0-5.9906 3.0235-5.9906 6.7437 0 1.4276 0.38898 2.7525 1.0625 3.8426 3.5336-0.55447 7.0024-0.91948 10.376-1.0942 0.33652-0.84236 0.51993-1.7654 0.51993-2.7484 0-3.7202-2.6632-6.7437-5.968-6.7437z" fill="#2e3436" stroke-width="1.535"/>
  </g>
  <path d="m531.49 112.13c-1.6075-11.626-10.342-14.8-23.378-17.133-12.978-2.3226-33.537 2.9441-33.493 13.88 0.043701 10.938 7.0246-1.1485 31.91-1.2762 24.885-0.12775 26.576 16.2 24.962 4.5295z" fill="#8ae234" filter="url(#s)" opacity=".831" stroke-width="2"/>
  <g stroke="#2e3436">
   <g stroke-width="2">
    <path d="m502.82 111.33c15.377 0 27.875 16.298 27.875 36.406 0 7.4225-1.7061 14.334-4.625 20.094-4.4978-1.2064-9.1548-2.2498-13.969-3.0938-12.231-2.1442-24.029-2.79-34.719-2.1562-1.5473-4.5307-2.4062-9.5638-2.4062-14.844 0-20.109 12.467-36.406 27.844-36.406z" fill="url(#ab)"/>
    <path d="m500.28 137.95c10.195 0 18.469 8.2734 18.469 18.469 0 3.3173-0.87311 6.4333-2.4062 9.125-1.399-0.28416-2.8234-0.56239-4.25-0.8125-10.196-1.7875-20.078-2.5121-29.281-2.3438-0.63867-1.8711-1-3.8822-1-5.9688 0-10.195 8.2733-18.469 18.469-18.469z" fill="#007fff"/>
   </g>
   <path d="m499.33 152.76c3.4052 0 6.1726 2.9217 6.1726 6.5166 0 1.3795-0.40082 2.6598-1.0947 3.7132-3.6409-0.53578-7.2151-0.88852-10.691-1.0574-0.34674-0.814-0.53571-1.7059-0.53571-2.6558 0-3.5949 2.7441-6.5166 6.1492-6.5166z" fill="#2e3436" stroke-width="1.532"/>
  </g>
  <g fill="#8ae234" stroke-width="2">
   <path d="m402.46 114.23c2.6932-14.897 15.888-18.337 27.485-19.231 11.597-0.89354 33.537 2.9441 33.493 13.88-0.043701 10.938-7.0246-1.1485-31.91-1.2763-24.885-0.12775-31.755 21.482-29.069 6.6268z" filter="url(#p)" opacity=".831"/>
   <path d="m409.91 181.88c-6.9033-9.594 11.591-13.336 20.158-14.229 8.8163-0.9196 28.234-4.3795 28.19 6.5565-13.252 5.9382-34.158 7.2133-48.348 7.6728z" filter="url(#t)" opacity=".507"/>
   <path d="m528.32 181.88c6.9033-9.594-11.591-13.336-20.158-14.229-8.8163-0.91962-28.234-4.3795-28.19 6.5565 13.252 5.9382 34.159 7.2133 48.348 7.6728z" filter="url(#u)" opacity=".507"/>
  </g>
  <path d="m499.64 184.25a29.241 29.241 0 1 1 -58.481 0 29.241 29.241 0 1 1 58.481 0z" fill="#f00" stroke="#2e3436" stroke-width="4.56"/>
  <path d="m493.14 82.927c8.5046-15.016 7.8652-17.827 22.837-32.319 15.339-14.847 43.652-13.354 40.414 5.0468-3.3601 19.099-26.317 20.922-24.036-0.82344 2.2877-21.809 47.666-25.786 74.064-21.188" fill="none" stroke="#000" stroke-width="3"/>
  <path d="m533.23 205.85c-16.019 63.969-130.13 53.349-130-4.2857 55.224 30.095 82.866 28.637 130 4.2857z" fill="#eeeeec" stroke="#2e3436" stroke-width="2"/>
  <path d="m404.66 210.14c2.2971 1.6668 6.4435 4.9642 9.9638 6.5474 1.6846 4.6117 6.3712 6.763 11.969 8.1037 2.7081 3.3669 7.0923 5.6674 13.628 6.5036 3.5384 4.3243 9.167 4.5471 14.946 4.3409 5.3802 2.3234 10.749 3.1469 15.922 1.6157 5.4256 2.0561 10.414 1.1189 13.579-0.7386 5.9322 0.51326 8.5021-0.76946 11.877-3.3484 4.3518-0.72601 8.1503-0.083405 11.187-4.6509 5.8663-0.52895 10.253-2.746 12.272-7.4449 2.9802-0.37332 8.5163-3.8002 10.37-5.9285" fill="none" stroke="url(#aa)"/>
  <path d="m623.92 37.018a13.461 13.461 0 1 1 -26.921 0 13.461 13.461 0 1 1 26.921 0z" fill="#f0f" stroke="#2e3436" stroke-width="9.905"/>
  <path d="m445.47 84.947c-8.5046-15.016-8.9373-23.948-19.958-33.038-10.598-8.7414-33.84-17.348-42.574 0.72878-9.0146 18.658 24.959 27.688 24.036 7.8125-0.922-19.855-38.31-26.505-60.39 0.40231" fill="none" stroke="#000" stroke-width="3"/>
  <path d="m331.24 59.909a13.461 13.461 0 1 1 26.921 0 13.461 13.461 0 1 1 -26.921 0z" fill="#f0f" stroke="#2e3436" stroke-width="9.905"/>
  <g fill="#2e3436" stroke-width="3">
   <path d="m453.11 82.653c1.0759 1.5625-1.2598 5.5731-4.5068 7.1934-3.4896 1.7413-7.9555 0.97789-8.093-0.89176-0.26535-3.6539 2.6225-0.66527 5.985-2.5995 2.8857-1.66 4.4318-6.8726 6.6148-3.7021z" filter="url(#w)" opacity=".26"/>
   <path d="m500.43 81.127c1.0759 1.5626-1.2598 5.5731-4.5068 7.1934-3.4896 1.7413-7.9555 0.97788-8.093-0.89176-0.26538-3.654 2.6225-0.66528 5.985-2.5995 2.8857-1.66 4.4318-6.8726 6.6148-3.7021z" filter="url(#v)" opacity=".26"/>
   <path d="m395.01 205.3c-0.59082-14.216 6.7182-14.719 14.532-7.2203-8.2481-2.4961-10.899 0.26398-14.532 7.2203z" filter="url(#x)" opacity=".26"/>
  </g>
 </g>
</svg>
