<?xml version="1.0" standalone="no"?>
<!DOCTYPE svg PUBLIC "-//W3C//DTD SVG 20010904//EN"
 "http://www.w3.org/TR/2001/REC-SVG-20010904/DTD/svg10.dtd">
<svg version="1.0" xmlns="http://www.w3.org/2000/svg"
 width="94.000000pt" height="127.000000pt" viewBox="0 0 94.000000 127.000000"
 preserveAspectRatio="xMidYMid meet">

<g transform="translate(0.000000,127.000000) scale(0.100000,-0.100000)"
fill="#000000" stroke="none">
<path d="M405 1101 c-70 -18 -136 -72 -169 -138 -18 -36 -43 -169 -34 -178 3
-4 49 -10 102 -13 l96 -7 0 32 c0 44 19 132 36 166 10 18 22 27 38 27 35 0 49
-44 44 -137 -3 -67 -9 -89 -42 -153 -50 -97 -73 -166 -82 -240 l-7 -60 85 0
85 0 17 61 c10 38 39 96 76 150 66 101 86 168 76 261 -10 100 -53 171 -128
209 -43 22 -146 33 -193 20z"/>
<path d="M380 245 l0 -85 95 0 95 0 0 85 0 85 -95 0 -95 0 0 -85z"/>
</g>
</svg>
