<svg width="94" height="127" xmlns="http://www.w3.org/2000/svg" version="1.0" preserveAspectRatio="xMidYMid meet">
 <g>
  <title>Layer 1</title>
  <g transform="translate(0 127) scale(0.1 -0.1)" fill="#000000" id="svg_1">
   <path d="m405,1101c-70,-18 -136,-72 -169,-138c-18,-36 -43,-169 -34,-178c3,-4 49,-10 102,-13l96,-7l0,32c0,44 19,132 36,166c10,18 22,27 38,27c35,0 49,-44 44,-137c-3,-67 -9,-89 -42,-153c-50,-97 -73,-166 -82,-240l-7,-60l85,0l85,0l17,61c10,38 39,96 76,150c66,101 86,168 76,261c-10,100 -53,171 -128,209c-43,22 -146,33 -193,20z" id="svg_2" fill="#33617a"/>
   <path d="m380,245l0,-85l95,0l95,0l0,85l0,85l-95,0l-95,0l0,-85z" id="svg_3" fill="#33617a"/>
  </g>
 </g>

</svg>