<?xml version="1.0" standalone="no"?>
<!DOCTYPE svg PUBLIC "-//W3C//DTD SVG 20010904//EN"
 "http://www.w3.org/TR/2001/REC-SVG-20010904/DTD/svg10.dtd">
<svg version="1.0" xmlns="http://www.w3.org/2000/svg"
 width="129.000000pt" height="181.000000pt" viewBox="0 0 129.000000 181.000000"
 preserveAspectRatio="xMidYMid meet">

<g transform="translate(0.000000,181.000000) scale(0.100000,-0.100000)"
fill="#000000" stroke="none">
<path d="M584 1630 c-175 -37 -303 -221 -304 -436 0 -30 3 -32 43 -38 23 -3
90 -8 148 -12 l106 -7 6 84 c11 139 47 239 90 247 21 4 53 -33 61 -70 11 -57
6 -174 -10 -228 -9 -30 -40 -103 -70 -162 -61 -121 -90 -217 -100 -324 l-7
-75 128 3 128 3 13 60 c16 81 52 157 109 235 129 174 158 369 80 535 -33 68
-118 147 -182 169 -58 20 -182 28 -239 16z"/>
<path d="M540 400 l0 -120 135 0 135 0 0 120 0 120 -135 0 -135 0 0 -120z"/>
</g>
</svg>
