<svg width="150" height="136" xmlns="http://www.w3.org/2000/svg" version="1.1" xml:space="preserve">
 <g>
  <title>Layer 1</title>
  <path d="m16.8,98.1c2.9,1.1 5.9,1.7 8.8,2.6c10,3.2 18.3,10.4 24.9,18.5c3.8,4.7 7.2,9.8 12.1,13.3c10.1,7.2 17.3,2 24.3,-5.7c1.4,-1.5 2.9,-3.1 4.6,-4.2c5.9,-3.9 12.5,-1.2 18.8,-2.8c6.5,-1.7 11.6,-6.9 13.6,-13.3c0.7,-2.4 1.1,-4.8 2,-7.1c2.3,-5.4 7.4,-8.9 11.9,-12.5c3.8,-2.9 7.4,-6.2 9.7,-10.4c2.3,-4.2 3.3,-9.3 1.5,-13.8c-4.1,-10.2 -20.3,-12.6 -21.9,-23.5c-0.5,-3.4 0.7,-6.9 0.8,-10.4c0.2,-8.8 -6.4,-16.1 -13.2,-21.6c-5.8,-4.7 -13.3,-9 -20.3,-6.6c-6,2 -9.8,8.4 -15.9,10.1c-5.7,1.7 -11.5,-1.4 -17,-3.7c-8.7,-3.8 -19.7,-5.6 -27,0.4c-8.9,7.2 -7.6,21.5 -14.5,30.6c-2.4,3.2 -5.7,5.6 -8.6,8.4c-7.4,7.1 -12,17.3 -11.3,27.6c0.7,10.3 7.1,20.3 16.7,24.1z" fill="#f4e9d1" id="svg_1"/>
 </g>

</svg>